<svg width="19" height="20" viewBox="0 0 19 20" fill="none" xmlns="http://www.w3.org/2000/svg">
    <path d="M0 5.25C0 4.62011 0.250223 4.01602 0.695621 3.57062C1.14102 3.12522 1.74511 2.875 2.375 2.875H16.625C17.2549 2.875 17.859 3.12522 18.3044 3.57062C18.7498 4.01602 19 4.62011 19 5.25V6.4375H0V5.25ZM0 8.8125V14.75C0 15.3799 0.250223 15.984 0.695621 16.4294C1.14102 16.8748 1.74511 17.125 2.375 17.125H16.625C17.2549 17.125 17.859 16.8748 18.3044 16.4294C18.7498 15.984 19 15.3799 19 14.75V8.8125H0ZM3.5625 11.1875H4.75C5.06494 11.1875 5.36699 11.3126 5.58969 11.5353C5.81239 11.758 5.9375 12.0601 5.9375 12.375V13.5625C5.9375 13.8774 5.81239 14.1795 5.58969 14.4022C5.36699 14.6249 5.06494 14.75 4.75 14.75H3.5625C3.24756 14.75 2.94551 14.6249 2.72281 14.4022C2.50011 14.1795 2.375 13.8774 2.375 13.5625V12.375C2.375 12.0601 2.50011 11.758 2.72281 11.5353C2.94551 11.3126 3.24756 11.1875 3.5625 11.1875Z" fill="black"/>
</svg>
