<svg width="19" height="20" viewBox="0 0 19 20" fill="none" xmlns="http://www.w3.org/2000/svg">
    <rect width="19" height="19" transform="translate(0 0.5)"/>
    <path d="M17.2757 6.38288C17.2029 6.27764 17.1057 6.19163 16.9923 6.1322C16.879 6.07278 16.7529 6.04171 16.625 6.04167H5.80527L4.89169 3.84875C4.7719 3.55997 4.56906 3.31326 4.30888 3.1399C4.04871 2.96655 3.74291 2.87435 3.43027 2.875H1.58331V4.45834H3.43027L7.18594 13.4715C7.24609 13.6157 7.34758 13.7388 7.47761 13.8255C7.60764 13.9121 7.7604 13.9583 7.91665 13.9583H14.25C14.5801 13.9583 14.8754 13.7533 14.9918 13.4453L17.3668 7.112C17.4117 6.99216 17.4268 6.86322 17.411 6.73624C17.3951 6.60925 17.3487 6.488 17.2757 6.38288Z" fill="black"/>
    <path d="M8.3125 17.125C8.96834 17.125 9.5 16.5933 9.5 15.9375C9.5 15.2817 8.96834 14.75 8.3125 14.75C7.65666 14.75 7.125 15.2817 7.125 15.9375C7.125 16.5933 7.65666 17.125 8.3125 17.125Z" fill="black"/>
    <path d="M13.8542 17.125C14.51 17.125 15.0417 16.5933 15.0417 15.9375C15.0417 15.2817 14.51 14.75 13.8542 14.75C13.1983 14.75 12.6667 15.2817 12.6667 15.9375C12.6667 16.5933 13.1983 17.125 13.8542 17.125Z" fill="black"/>
</svg>
