<svg width="13" height="16" viewBox="0 0 13 16" fill="none" xmlns="http://www.w3.org/2000/svg">
    <path d="M0.791667 15.9167C0.581704 15.9167 0.38034 15.8333 0.231874 15.6848C0.0834076 15.5363 0 15.335 0 15.125V0.874995C0 0.665032 0.0834076 0.463668 0.231874 0.315202C0.38034 0.166736 0.581704 0.0833282 0.791667 0.0833282H11.875C12.085 0.0833282 12.2863 0.166736 12.4348 0.315202C12.5833 0.463668 12.6667 0.665032 12.6667 0.874995V15.125C12.6667 15.335 12.5833 15.5363 12.4348 15.6848C12.2863 15.8333 12.085 15.9167 11.875 15.9167H0.791667ZM8.70833 11.1667L12.6667 8L8.70833 4.83333V7.20833H3.95833V8.79166H8.70833V11.1667Z" fill="black"/>
</svg>
