<svg width="22" height="20" viewBox="0 0 22 20" fill="none" xmlns="http://www.w3.org/2000/svg">
    <path d="M20.8579 4.39367C20.5262 3.63173 20.048 2.94126 19.45 2.36092C18.8516 1.77885 18.146 1.31629 17.3717 0.998386C16.5687 0.667432 15.7075 0.498032 14.838 0.500017C13.6182 0.500017 12.4281 0.831444 11.3939 1.45747C11.1465 1.60723 10.9114 1.77172 10.6887 1.95093C10.466 1.77172 10.231 1.60723 9.98357 1.45747C8.94933 0.831444 7.75922 0.500017 6.53942 0.500017C5.66106 0.500017 4.80993 0.666958 4.0058 0.998386C3.22889 1.31754 2.52867 1.77663 1.92743 2.36092C1.32866 2.9406 0.850342 3.63124 0.519591 4.39367C0.175671 5.18664 0 6.02871 0 6.89533C0 7.71285 0.168249 8.56474 0.502271 9.43137C0.78186 10.1556 1.18269 10.9068 1.69486 11.6654C2.50641 12.8659 3.62229 14.118 5.00786 15.3872C7.30396 17.4912 9.57779 18.9446 9.67428 19.0035L10.2607 19.3766C10.5205 19.5411 10.8545 19.5411 11.1143 19.3766L11.7007 19.0035C11.7972 18.9421 14.0685 17.4912 16.3671 15.3872C17.7527 14.118 18.8686 12.8659 19.6801 11.6654C20.1923 10.9068 20.5956 10.1556 20.8727 9.43137C21.2067 8.56474 21.375 7.71285 21.375 6.89533C21.3774 6.02871 21.2018 5.18664 20.8579 4.39367Z" fill="black"/>
</svg>
