<svg width="20" height="20" viewBox="0 0 20 20" fill="none" xmlns="http://www.w3.org/2000/svg">
    <path d="M0.95044 11.8945H2.85182V18.5493C2.85182 18.8014 2.95198 19.0433 3.13027 19.2215C3.30856 19.3998 3.55037 19.5 3.80251 19.5H15.2108C15.4629 19.5 15.7047 19.3998 15.883 19.2215C16.0613 19.0433 16.1615 18.8014 16.1615 18.5493V11.8945H18.0628C18.2466 11.8946 18.4264 11.8415 18.5805 11.7414C18.7346 11.6413 18.8563 11.4986 18.9308 11.3307C19.0059 11.1629 19.0306 10.9769 19.0019 10.7953C18.9732 10.6137 18.8924 10.4443 18.7692 10.3078L10.213 0.800893C9.85269 0.399702 9.16059 0.399702 8.80028 0.800893L0.244078 10.3078C0.121146 10.4444 0.040429 10.6136 0.0116953 10.7951C-0.0170384 10.9766 0.00744223 11.1626 0.0821751 11.3304C0.156908 11.4983 0.27869 11.6409 0.432785 11.741C0.586881 11.8411 0.766685 11.8944 0.95044 11.8945ZM6.60609 11.5941C6.63556 11.6844 7.379 13.7959 9.50664 13.7959C11.6638 13.7959 12.3986 11.6216 12.4062 11.5988L14.2126 12.1892C14.166 12.3328 13.027 15.6972 9.50664 15.6972C5.98624 15.6972 4.84732 12.3328 4.80073 12.1902L6.60609 11.5941Z" fill="black"/>
</svg>
