<svg width="15" height="20" viewBox="0 0 15 20" fill="none" xmlns="http://www.w3.org/2000/svg">
    <path d="M7.5 0.5C5.5116 0.502357 3.60532 1.28953 2.19931 2.68884C0.793305 4.08815 0.00236828 5.98535 0 7.96427C0 14.3511 6.81818 19.1753 7.10847 19.3774C7.22328 19.4572 7.35995 19.5 7.5 19.5C7.64005 19.5 7.77672 19.4572 7.89153 19.3774C8.18182 19.1753 15 14.3511 15 7.96427C14.9976 5.98535 14.2067 4.08815 12.8007 2.68884C11.3947 1.28953 9.4884 0.502357 7.5 0.5ZM7.50051 5.25024C8.03992 5.25024 8.5672 5.40943 9.0157 5.70768C9.4642 6.00593 9.81376 6.42984 10.0202 6.92581C10.2266 7.42178 10.2806 7.96754 10.1754 8.49405C10.0701 9.02057 9.8104 9.50421 9.42898 9.88381C9.04757 10.2634 8.56161 10.5219 8.03258 10.6266C7.50354 10.7314 6.95517 10.6776 6.45683 10.4722C5.95849 10.2668 5.53254 9.91886 5.23287 9.4725C4.93319 9.02614 4.77324 8.50136 4.77324 7.96452C4.77324 7.24465 5.06058 6.55426 5.57204 6.04524C6.0835 5.53621 6.77719 5.25024 7.50051 5.25024Z" fill="#737373"/>
</svg>
