<svg width="24" height="17" viewBox="0 0 24 17" fill="none" xmlns="http://www.w3.org/2000/svg">
    <path d="M1.71429 0H10.2857C10.7404 0 11.1764 0.179107 11.4979 0.497919C11.8194 0.816731 12 1.24913 12 1.7C12 2.15087 11.8194 2.58327 11.4979 2.90208C11.1764 3.22089 10.7404 3.4 10.2857 3.4H1.71429C1.25963 3.4 0.823594 3.22089 0.502103 2.90208C0.180612 2.58327 0 2.15087 0 1.7C0 1.24913 0.180612 0.816731 0.502103 0.497919C0.823594 0.179107 1.25963 0 1.71429 0V0ZM13.7143 13.6H22.2857C22.7404 13.6 23.1764 13.7791 23.4979 14.0979C23.8194 14.4167 24 14.8491 24 15.3C24 15.7509 23.8194 16.1833 23.4979 16.5021C23.1764 16.8209 22.7404 17 22.2857 17H13.7143C13.2596 17 12.8236 16.8209 12.5021 16.5021C12.1806 16.1833 12 15.7509 12 15.3C12 14.8491 12.1806 14.4167 12.5021 14.0979C12.8236 13.7791 13.2596 13.6 13.7143 13.6V13.6ZM1.71429 6.8H22.2857C22.7404 6.8 23.1764 6.97911 23.4979 7.29792C23.8194 7.61673 24 8.04913 24 8.5C24 8.95087 23.8194 9.38327 23.4979 9.70208C23.1764 10.0209 22.7404 10.2 22.2857 10.2H1.71429C1.25963 10.2 0.823594 10.0209 0.502103 9.70208C0.180612 9.38327 0 8.95087 0 8.5C0 8.04913 0.180612 7.61673 0.502103 7.29792C0.823594 6.97911 1.25963 6.8 1.71429 6.8Z" fill="black"/>
</svg>
