<svg width="14" height="20" viewBox="0 0 14 20" fill="none" xmlns="http://www.w3.org/2000/svg">
    <path d="M12.25 2.875H9.33333C9.33333 1.56504 8.28698 0.5 7 0.5C5.71302 0.5 4.66667 1.56504 4.66667 2.875H1.75C0.783854 2.875 0 3.67285 0 4.65625V17.7188C0 18.7021 0.783854 19.5 1.75 19.5H12.25C13.2161 19.5 14 18.7021 14 17.7188V4.65625C14 3.67285 13.2161 2.875 12.25 2.875ZM3.5 16.2344C3.0151 16.2344 2.625 15.8373 2.625 15.3438C2.625 14.8502 3.0151 14.4531 3.5 14.4531C3.9849 14.4531 4.375 14.8502 4.375 15.3438C4.375 15.8373 3.9849 16.2344 3.5 16.2344ZM3.5 12.6719C3.0151 12.6719 2.625 12.2748 2.625 11.7812C2.625 11.2877 3.0151 10.8906 3.5 10.8906C3.9849 10.8906 4.375 11.2877 4.375 11.7812C4.375 12.2748 3.9849 12.6719 3.5 12.6719ZM3.5 9.10938C3.0151 9.10938 2.625 8.71231 2.625 8.21875C2.625 7.7252 3.0151 7.32812 3.5 7.32812C3.9849 7.32812 4.375 7.7252 4.375 8.21875C4.375 8.71231 3.9849 9.10938 3.5 9.10938ZM7 1.98438C7.4849 1.98438 7.875 2.38145 7.875 2.875C7.875 3.36855 7.4849 3.76562 7 3.76562C6.5151 3.76562 6.125 3.36855 6.125 2.875C6.125 2.38145 6.5151 1.98438 7 1.98438ZM11.6667 15.6406C11.6667 15.8039 11.5354 15.9375 11.375 15.9375H6.125C5.96458 15.9375 5.83333 15.8039 5.83333 15.6406V15.0469C5.83333 14.8836 5.96458 14.75 6.125 14.75H11.375C11.5354 14.75 11.6667 14.8836 11.6667 15.0469V15.6406ZM11.6667 12.0781C11.6667 12.2414 11.5354 12.375 11.375 12.375H6.125C5.96458 12.375 5.83333 12.2414 5.83333 12.0781V11.4844C5.83333 11.3211 5.96458 11.1875 6.125 11.1875H11.375C11.5354 11.1875 11.6667 11.3211 11.6667 11.4844V12.0781ZM11.6667 8.51562C11.6667 8.67891 11.5354 8.8125 11.375 8.8125H6.125C5.96458 8.8125 5.83333 8.67891 5.83333 8.51562V7.92188C5.83333 7.75859 5.96458 7.625 6.125 7.625H11.375C11.5354 7.625 11.6667 7.75859 11.6667 7.92188V8.51562Z" fill="black"/>
</svg>
